<svg height="512" viewBox="0 0 128 128" width="512" xmlns="http://www.w3.org/2000/svg"><path d="M107.427 84.289H77.272A182.929 182.929 0 0164 102.66a182.929 182.929 0 01-13.272-18.371H20.573L6.306 121.694h115.388z" fill="#dfeef4"/><path d="M64 6.31a30.711 30.711 0 00-30.71 30.71C33.11 66.32 64 102.66 64 102.66s30.89-36.34 30.71-65.64A30.711 30.711 0 0064 6.31zm0 43.74a13.03 13.03 0 1113.03-13.03A13.025 13.025 0 0164 50.05z" fill="#f45858"/><path d="M110.74 92.96l-57.58 20.48-22.44-29.15h20.01A182.752 182.752 0 0064 102.66a182.752 182.752 0 0013.27-18.37h30.16z" fill="#f2da30"/><path d="M29.96 121.694l56.996-20.274 15.604 20.274z" fill="#3ea2e5"/></svg>