<svg xmlns="http://www.w3.org/2000/svg" viewBox="0 0 512 512"><circle cx="256" cy="130.169" r="121.492" fill="#a4c2f7"/><ellipse cx="242.983" cy="130.169" rx="108.475" ry="121.492" fill="#e3e7f2"/><circle cx="212.61" cy="95.458" r="26.034" fill="#a4c2f7"/><path d="M256 251.661c2.322 0 4.587-.218 6.877-.347-57.035-3.585-102.334-56.368-102.334-121.144S205.841 12.61 262.877 9.025c-2.29-.129-4.555-.347-6.877-.347-67.098 0-121.492 54.394-121.492 121.492S188.902 251.661 256 251.661z" fill="#fff"/><g fill="#428dff"><path d="M256 260.339c-71.891 0-130.169-58.279-130.169-130.169S184.109 0 256 0s130.169 58.279 130.169 130.169c-.079 71.858-58.312 130.09-130.169 130.17zm0-242.983c-62.305 0-112.814 50.508-112.814 112.814S193.695 242.983 256 242.983s112.814-50.508 112.814-112.814C368.743 67.894 318.276 17.426 256 17.356z"/><path d="M212.61 130.169c-19.171 0-34.712-15.541-34.712-34.712s15.541-34.712 34.712-34.712 34.712 15.541 34.712 34.712c-.02 19.163-15.549 34.692-34.712 34.712zm0-52.067c-9.585 0-17.356 7.771-17.356 17.356s7.771 17.356 17.356 17.356 17.356-7.771 17.356-17.356c-.011-9.581-7.775-17.345-17.356-17.356zM256 512a8.677 8.677 0 01-8.678-8.678V251.661a8.678 8.678 0 018.678-8.678 8.678 8.678 0 018.678 8.678v251.661A8.677 8.677 0 01256 512z"/></g></svg>